<?xml version="1.0" encoding="UTF-8"?>
<svg width="700pt" height="700pt" version="1.1" viewBox="0 0 700 700" xmlns="http://www.w3.org/2000/svg">
 <g fill-rule="evenodd">
  <path d="m612.5 108.5c0-10.203-4.0586-20.004-11.27-27.23-7.2266-7.2109-17.027-11.27-27.23-11.27h-448c-10.203 0-20.004 4.0586-27.23 11.27-7.2109 7.2266-11.27 17.027-11.27 27.23v343c0 10.203 4.0586 20.004 11.27 27.23 7.2266 7.2109 17.027 11.27 27.23 11.27h448c10.203 0 20.004-4.0586 27.23-11.27 7.2109-7.2266 11.27-17.027 11.27-27.23zm-490 66.5v276.5c0 0.92578 0.36719 1.8203 1.0312 2.4688 0.64844 0.66406 1.543 1.0312 2.4688 1.0312h448c0.92578 0 1.8203-0.36719 2.4688-1.0312 0.66406-0.64844 1.0312-1.543 1.0312-2.4688v-259h-117.55c-5.9688 0-11.867-1.3984-17.219-4.0586l-26.129-13.074c-0.49219-0.24609-1.0156-0.36719-1.5586-0.36719zm455-17.5v-49c0-0.92578-0.36719-1.8203-1.0312-2.4688-0.64844-0.66406-1.543-1.0312-2.4688-1.0312h-448c-0.92578 0-1.8203 0.36719-2.4688 1.0312-0.66406 0.64844-1.0312 1.543-1.0312 2.4688v31.5h292.55c5.9688 0 11.867 1.3984 17.219 4.0586l26.129 13.074c0.49219 0.24609 1.0156 0.36719 1.5586 0.36719z"/>
  <path d="m229 288.75-13.875 13.879c-6.8281 6.8242-6.8281 17.918 0 24.742 6.8242 6.8281 17.918 6.8281 24.742 0l13.879-13.875 13.879 13.875c6.8242 6.8281 17.918 6.8281 24.742 0 6.8281-6.8242 6.8281-17.918 0-24.742l-13.875-13.879 13.875-13.879c6.8281-6.8242 6.8281-17.918 0-24.742-6.8242-6.8281-17.918-6.8281-24.742 0l-13.879 13.875-13.879-13.875c-6.8242-6.8281-17.918-6.8281-24.742 0-6.8281 6.8242-6.8281 17.918 0 24.742z"/>
  <path d="m421.5 288.75-13.875 13.879c-6.8281 6.8242-6.8281 17.918 0 24.742 6.8242 6.8281 17.918 6.8281 24.742 0l13.879-13.875 13.879 13.875c6.8242 6.8281 17.918 6.8281 24.742 0 6.8281-6.8242 6.8281-17.918 0-24.742l-13.875-13.879 13.875-13.879c6.8281-6.8242 6.8281-17.918 0-24.742-6.8242-6.8281-17.918-6.8281-24.742 0l-13.879 13.875-13.879-13.875c-6.8242-6.8281-17.918-6.8281-24.742 0-6.8281 6.8242-6.8281 17.918 0 24.742z"/>
  <path d="m272.18 400.64s15.246 7.6289 25.605 12.809c10.832 5.4258 23.605 5.4258 34.438 0l16.223-8.1016c0.98047-0.48828 2.1367-0.48828 3.1172 0l16.223 8.1016c10.832 5.4258 23.605 5.4258 34.438 0 10.359-5.1797 25.605-12.809 25.605-12.809 8.6445-4.3047 12.145-14.84 7.8203-23.469-4.3047-8.6445-14.84-12.145-23.469-7.8203l-25.617 12.793c-0.98047 0.48828-2.1367 0.48828-3.1172 0l-16.223-8.1016c-10.832-5.4258-23.605-5.4258-34.438 0l-16.223 8.1016c-0.98047 0.48828-2.1367 0.48828-3.1172 0l-25.617-12.793c-8.6289-4.3242-19.164-0.82422-23.469 7.8203-4.3242 8.6289-0.82422 19.164 7.8203 23.469z"/>
 </g>
</svg>
