<svg xmlns="http://www.w3.org/2000/svg" xmlns:xlink="http://www.w3.org/1999/xlink" width="400" zoomAndPan="magnify" viewBox="0 0 300 299.999988" height="400" preserveAspectRatio="xMidYMid meet" version="1.0"><defs><g/><clipPath id="56ecacaf6c"><path d="M 91.261719 114.507812 L 228.511719 114.507812 L 228.511719 202.257812 L 91.261719 202.257812 Z M 91.261719 114.507812 " clip-rule="nonzero"/></clipPath><clipPath id="a44b75a8d9"><path d="M 14.921875 43 L 284.921875 43 L 284.921875 269 L 14.921875 269 Z M 14.921875 43 " clip-rule="nonzero"/></clipPath><clipPath id="1cd41182f3"><path d="M 79.042969 145.097656 L 160.042969 145.097656 L 160.042969 198.347656 L 79.042969 198.347656 Z M 79.042969 145.097656 " clip-rule="nonzero"/></clipPath></defs><rect x="-30" width="360" fill="#ffffff" y="-29.999999" height="359.999986" fill-opacity="1"/><rect x="-30" width="360" fill="#ffffff" y="-29.999999" height="359.999986" fill-opacity="1"/><rect x="-30" width="360" fill="#ffffff" y="-29.999999" height="359.999986" fill-opacity="1"/><g clip-path="url(#56ecacaf6c)"><path fill="#ffffff" d="M 91.261719 114.507812 L 228.511719 114.507812 L 228.511719 202.257812 L 91.261719 202.257812 L 91.261719 114.507812 " fill-opacity="1" fill-rule="nonzero"/></g><g clip-path="url(#a44b75a8d9)"><path fill="#040606" d="M 269.914062 73.71875 L 254.910156 73.71875 L 254.910156 58.730469 L 269.914062 58.730469 Z M 269.914062 253.828125 L 29.925781 253.828125 L 29.925781 88.730469 L 269.914062 88.730469 Z M 29.925781 58.730469 L 239.902344 58.730469 L 239.902344 73.71875 L 29.925781 73.71875 Z M 277.417969 43.71875 L 22.421875 43.71875 C 18.277344 43.71875 14.921875 47.074219 14.921875 51.222656 L 14.921875 261.335938 C 14.921875 265.460938 18.277344 268.839844 22.421875 268.839844 L 277.417969 268.839844 C 281.5625 268.839844 284.921875 265.460938 284.921875 261.335938 L 284.921875 51.222656 C 284.921875 47.074219 281.5625 43.71875 277.417969 43.71875 " fill-opacity="1" fill-rule="nonzero"/></g><path fill="#040606" d="M 47.113281 161.566406 C 48.574219 163.054688 50.492188 163.773438 52.433594 163.773438 C 54.351562 163.773438 56.269531 163.054688 57.730469 161.566406 L 80.214844 139.070312 C 83.164062 136.144531 83.164062 131.375 80.214844 128.449219 L 57.730469 105.953125 C 54.804688 103 50.035156 103 47.113281 105.953125 C 44.1875 108.878906 44.1875 113.625 47.113281 116.550781 L 64.324219 133.746094 L 47.113281 150.96875 C 44.1875 153.894531 44.1875 158.640625 47.113281 161.566406 " fill-opacity="1" fill-rule="nonzero"/><path fill="#040606" d="M 89.921875 178.785156 L 119.910156 178.785156 C 124.054688 178.785156 127.414062 175.429688 127.414062 171.28125 C 127.414062 167.132812 124.054688 163.773438 119.910156 163.773438 L 89.921875 163.773438 C 85.777344 163.773438 82.421875 167.132812 82.421875 171.28125 C 82.421875 175.429688 85.777344 178.785156 89.921875 178.785156 " fill-opacity="1" fill-rule="nonzero"/><g clip-path="url(#1cd41182f3)"><path fill="#ffffff" d="M 79.046875 145.097656 L 160.039062 145.097656 L 160.039062 198.347656 L 79.046875 198.347656 L 79.046875 145.097656 " fill-opacity="1" fill-rule="nonzero"/></g><g fill="#000000" fill-opacity="1"><g transform="translate(95.708084, 147.712942)"><g><path d="M 10.09375 -33.53125 L 10.09375 -21.1875 C 11.082031 -22.226562 12.15625 -23.003906 13.3125 -23.515625 C 14.46875 -24.023438 15.695312 -24.28125 17 -24.28125 C 19.09375 -24.28125 20.691406 -23.664062 21.796875 -22.4375 C 22.898438 -21.21875 23.453125 -19.492188 23.453125 -17.265625 L 23.453125 0 L 16.46875 0 L 16.46875 -15.3125 C 16.46875 -16.726562 16.304688 -17.71875 15.984375 -18.28125 C 15.671875 -18.84375 15.078125 -19.125 14.203125 -19.125 C 13.722656 -19.125 13.25 -19.007812 12.78125 -18.78125 C 12.3125 -18.550781 11.851562 -18.222656 11.40625 -17.796875 C 10.96875 -17.367188 10.53125 -16.859375 10.09375 -16.265625 L 10.09375 0 L 3.09375 0 L 3.09375 -32.84375 Z M 10.09375 -33.53125 "/></g></g></g><g fill="#000000" fill-opacity="1"><g transform="translate(122.265172, 147.712942)"><g><path d="M 9.15625 -9.71875 C 9.320312 -8.4375 9.660156 -7.398438 10.171875 -6.609375 C 10.679688 -5.816406 11.332031 -5.238281 12.125 -4.875 C 12.925781 -4.519531 13.820312 -4.34375 14.8125 -4.34375 C 15.882812 -4.34375 16.921875 -4.519531 17.921875 -4.875 C 18.929688 -5.226562 19.898438 -5.695312 20.828125 -6.28125 L 23.640625 -2.484375 C 22.535156 -1.535156 21.195312 -0.757812 19.625 -0.15625 C 18.050781 0.445312 16.257812 0.75 14.25 0.75 C 11.5625 0.75 9.3125 0.21875 7.5 -0.84375 C 5.6875 -1.914062 4.320312 -3.390625 3.40625 -5.265625 C 2.488281 -7.140625 2.03125 -9.296875 2.03125 -11.734375 C 2.03125 -14.046875 2.472656 -16.148438 3.359375 -18.046875 C 4.242188 -19.941406 5.539062 -21.453125 7.25 -22.578125 C 8.957031 -23.710938 11.039062 -24.28125 13.5 -24.28125 C 15.738281 -24.28125 17.679688 -23.800781 19.328125 -22.84375 C 20.972656 -21.882812 22.25 -20.503906 23.15625 -18.703125 C 24.0625 -16.898438 24.515625 -14.738281 24.515625 -12.21875 C 24.515625 -11.820312 24.503906 -11.394531 24.484375 -10.9375 C 24.460938 -10.476562 24.429688 -10.070312 24.390625 -9.71875 Z M 13.5 -19.59375 C 12.25 -19.59375 11.238281 -19.140625 10.46875 -18.234375 C 9.695312 -17.335938 9.234375 -15.898438 9.078125 -13.921875 L 17.703125 -13.921875 C 17.691406 -15.628906 17.359375 -17 16.703125 -18.03125 C 16.054688 -19.070312 14.988281 -19.59375 13.5 -19.59375 Z M 13.5 -19.59375 "/></g></g></g><g fill="#000000" fill-opacity="1"><g transform="translate(148.82226, 147.712942)"><g><path d="M 15.359375 -32.84375 L 15.359375 -7.390625 C 15.359375 -6.441406 15.625 -5.765625 16.15625 -5.359375 C 16.695312 -4.960938 17.441406 -4.765625 18.390625 -4.765625 C 18.992188 -4.765625 19.578125 -4.832031 20.140625 -4.96875 C 20.703125 -5.101562 21.226562 -5.269531 21.71875 -5.46875 L 23.390625 -0.796875 C 22.597656 -0.378906 21.640625 -0.0195312 20.515625 0.28125 C 19.390625 0.59375 18.082031 0.75 16.59375 0.75 C 13.757812 0.75 11.675781 -0.0625 10.34375 -1.6875 C 9.019531 -3.320312 8.359375 -5.507812 8.359375 -8.25 L 8.359375 -28.0625 L 1.4375 -28.0625 L 1.4375 -32.84375 Z M 15.359375 -32.84375 "/></g></g></g><g fill="#000000" fill-opacity="1"><g transform="translate(175.379349, 147.712942)"><g><path d="M 15.359375 -32.84375 L 15.359375 -7.390625 C 15.359375 -6.441406 15.625 -5.765625 16.15625 -5.359375 C 16.695312 -4.960938 17.441406 -4.765625 18.390625 -4.765625 C 18.992188 -4.765625 19.578125 -4.832031 20.140625 -4.96875 C 20.703125 -5.101562 21.226562 -5.269531 21.71875 -5.46875 L 23.390625 -0.796875 C 22.597656 -0.378906 21.640625 -0.0195312 20.515625 0.28125 C 19.390625 0.59375 18.082031 0.75 16.59375 0.75 C 13.757812 0.75 11.675781 -0.0625 10.34375 -1.6875 C 9.019531 -3.320312 8.359375 -5.507812 8.359375 -8.25 L 8.359375 -28.0625 L 1.4375 -28.0625 L 1.4375 -32.84375 Z M 15.359375 -32.84375 "/></g></g></g><g fill="#000000" fill-opacity="1"><g transform="translate(201.936437, 147.712942)"><g><path d="M 13.28125 -24.28125 C 15.695312 -24.28125 17.753906 -23.765625 19.453125 -22.734375 C 21.148438 -21.703125 22.445312 -20.25 23.34375 -18.375 C 24.25 -16.507812 24.703125 -14.320312 24.703125 -11.8125 C 24.703125 -9.207031 24.25 -6.960938 23.34375 -5.078125 C 22.4375 -3.191406 21.132812 -1.75 19.4375 -0.75 C 17.738281 0.25 15.6875 0.75 13.28125 0.75 C 10.882812 0.75 8.832031 0.253906 7.125 -0.734375 C 5.425781 -1.722656 4.125 -3.148438 3.21875 -5.015625 C 2.3125 -6.890625 1.859375 -9.144531 1.859375 -11.78125 C 1.859375 -14.269531 2.3125 -16.453125 3.21875 -18.328125 C 4.125 -20.203125 5.425781 -21.660156 7.125 -22.703125 C 8.832031 -23.753906 10.882812 -24.28125 13.28125 -24.28125 Z M 13.28125 -19.125 C 11.851562 -19.125 10.796875 -18.535156 10.109375 -17.359375 C 9.421875 -16.191406 9.078125 -14.332031 9.078125 -11.78125 C 9.078125 -9.175781 9.421875 -7.289062 10.109375 -6.125 C 10.796875 -4.957031 11.851562 -4.375 13.28125 -4.375 C 14.707031 -4.375 15.765625 -4.957031 16.453125 -6.125 C 17.140625 -7.289062 17.484375 -9.1875 17.484375 -11.8125 C 17.484375 -14.351562 17.140625 -16.207031 16.453125 -17.375 C 15.765625 -18.539062 14.707031 -19.125 13.28125 -19.125 Z M 13.28125 -19.125 "/></g></g></g><g fill="#000000" fill-opacity="1"><g transform="translate(95.708084, 209.212937)"><g><path d="M 23.0625 0 L 15.34375 0 L 13.328125 -15.796875 L 11.21875 0 L 3.625 0 L 0.15625 -23.5 L 6.546875 -23.5 L 8.078125 -4.359375 L 10.5625 -20.546875 L 16.4375 -20.546875 L 18.65625 -4.359375 L 20.234375 -23.5 L 26.40625 -23.5 Z M 23.0625 0 "/></g></g></g><g fill="#000000" fill-opacity="1"><g transform="translate(122.265172, 209.212937)"><g><path d="M 13.28125 -24.28125 C 15.695312 -24.28125 17.753906 -23.765625 19.453125 -22.734375 C 21.148438 -21.703125 22.445312 -20.25 23.34375 -18.375 C 24.25 -16.507812 24.703125 -14.320312 24.703125 -11.8125 C 24.703125 -9.207031 24.25 -6.960938 23.34375 -5.078125 C 22.4375 -3.191406 21.132812 -1.75 19.4375 -0.75 C 17.738281 0.25 15.6875 0.75 13.28125 0.75 C 10.882812 0.75 8.832031 0.253906 7.125 -0.734375 C 5.425781 -1.722656 4.125 -3.148438 3.21875 -5.015625 C 2.3125 -6.890625 1.859375 -9.144531 1.859375 -11.78125 C 1.859375 -14.269531 2.3125 -16.453125 3.21875 -18.328125 C 4.125 -20.203125 5.425781 -21.660156 7.125 -22.703125 C 8.832031 -23.753906 10.882812 -24.28125 13.28125 -24.28125 Z M 13.28125 -19.125 C 11.851562 -19.125 10.796875 -18.535156 10.109375 -17.359375 C 9.421875 -16.191406 9.078125 -14.332031 9.078125 -11.78125 C 9.078125 -9.175781 9.421875 -7.289062 10.109375 -6.125 C 10.796875 -4.957031 11.851562 -4.375 13.28125 -4.375 C 14.707031 -4.375 15.765625 -4.957031 16.453125 -6.125 C 17.140625 -7.289062 17.484375 -9.1875 17.484375 -11.8125 C 17.484375 -14.351562 17.140625 -16.207031 16.453125 -17.375 C 15.765625 -18.539062 14.707031 -19.125 13.28125 -19.125 Z M 13.28125 -19.125 "/></g></g></g><g fill="#000000" fill-opacity="1"><g transform="translate(148.82226, 209.212937)"><g><path d="M 3.3125 0 L 3.3125 -4.6875 L 6.421875 -4.6875 L 6.421875 -18.859375 L 3.3125 -18.859375 L 3.3125 -23.5 L 11.75 -23.5 L 13.03125 -18.21875 C 13.875 -20.238281 14.945312 -21.742188 16.25 -22.734375 C 17.5625 -23.722656 19.160156 -24.21875 21.046875 -24.21875 C 21.847656 -24.21875 22.554688 -24.15625 23.171875 -24.03125 C 23.796875 -23.90625 24.378906 -23.726562 24.921875 -23.5 L 22.796875 -17.734375 C 22.367188 -17.847656 21.941406 -17.929688 21.515625 -17.984375 C 21.085938 -18.046875 20.613281 -18.078125 20.09375 -18.078125 C 18.5625 -18.078125 17.210938 -17.445312 16.046875 -16.1875 C 14.890625 -14.9375 14.007812 -13.347656 13.40625 -11.421875 L 13.40625 -4.6875 L 18.0625 -4.6875 L 18.0625 0 Z M 19.234375 -13.671875 L 19.234375 -20.546875 L 20.28125 -23.5 L 24.921875 -23.5 L 23.609375 -13.671875 Z M 19.234375 -13.671875 "/></g></g></g><g fill="#000000" fill-opacity="1"><g transform="translate(175.379349, 209.212937)"><g><path d="M 15.359375 -32.84375 L 15.359375 -7.390625 C 15.359375 -6.441406 15.625 -5.765625 16.15625 -5.359375 C 16.695312 -4.960938 17.441406 -4.765625 18.390625 -4.765625 C 18.992188 -4.765625 19.578125 -4.832031 20.140625 -4.96875 C 20.703125 -5.101562 21.226562 -5.269531 21.71875 -5.46875 L 23.390625 -0.796875 C 22.597656 -0.378906 21.640625 -0.0195312 20.515625 0.28125 C 19.390625 0.59375 18.082031 0.75 16.59375 0.75 C 13.757812 0.75 11.675781 -0.0625 10.34375 -1.6875 C 9.019531 -3.320312 8.359375 -5.507812 8.359375 -8.25 L 8.359375 -28.0625 L 1.4375 -28.0625 L 1.4375 -32.84375 Z M 15.359375 -32.84375 "/></g></g></g><g fill="#000000" fill-opacity="1"><g transform="translate(201.936437, 209.212937)"><g><path d="M 16.46875 -33.578125 L 23.453125 -32.84375 L 23.453125 0 L 17.265625 0 L 16.90625 -2.59375 C 16.257812 -1.675781 15.394531 -0.890625 14.3125 -0.234375 C 13.238281 0.421875 11.9375 0.75 10.40625 0.75 C 8.457031 0.75 6.84375 0.226562 5.5625 -0.8125 C 4.289062 -1.863281 3.335938 -3.328125 2.703125 -5.203125 C 2.078125 -7.085938 1.765625 -9.289062 1.765625 -11.8125 C 1.765625 -14.238281 2.140625 -16.390625 2.890625 -18.265625 C 3.648438 -20.140625 4.726562 -21.609375 6.125 -22.671875 C 7.53125 -23.742188 9.203125 -24.28125 11.140625 -24.28125 C 12.179688 -24.28125 13.148438 -24.09375 14.046875 -23.71875 C 14.953125 -23.351562 15.757812 -22.816406 16.46875 -22.109375 Z M 13.015625 -19.171875 C 11.804688 -19.171875 10.832031 -18.597656 10.09375 -17.453125 C 9.351562 -16.304688 8.984375 -14.414062 8.984375 -11.78125 C 8.984375 -9.84375 9.140625 -8.335938 9.453125 -7.265625 C 9.765625 -6.203125 10.191406 -5.453125 10.734375 -5.015625 C 11.273438 -4.585938 11.898438 -4.375 12.609375 -4.375 C 13.390625 -4.375 14.101562 -4.617188 14.75 -5.109375 C 15.394531 -5.597656 15.96875 -6.265625 16.46875 -7.109375 L 16.46875 -17.234375 C 15.976562 -17.847656 15.457031 -18.320312 14.90625 -18.65625 C 14.363281 -19 13.734375 -19.171875 13.015625 -19.171875 Z M 13.015625 -19.171875 "/></g></g></g></svg>