<svg xmlns="http://www.w3.org/2000/svg" version="1.1" xmlns:xlink="http://www.w3.org/1999/xlink" xmlns:svgjs="http://svgjs.com/svgjs" width="1440" height="560" preserveAspectRatio="none" viewBox="0 0 1440 560"><g mask="url(&quot;#SvgjsMask1006&quot;)" fill="none"><path d="M1464 560L0 560 L0 346Q62.07 288.07, 120 350.15Q164.21 274.36, 240 318.57Q300.38 306.95, 312 367.33Q340.63 275.96, 432 304.59Q481.79 282.38, 504 332.17Q534.42 290.59, 576 321.01Q662.55 287.56, 696 374.11Q748.07 306.18, 816 358.25Q851.66 273.91, 936 309.57Q961.82 263.38, 1008 289.2Q1108.32 269.52, 1128 369.84Q1149.24 319.08, 1200 340.32Q1236.83 257.14, 1320 293.97Q1366.55 268.52, 1392 315.07Q1438.36 289.42, 1464 335.78z" fill="rgba(0, 223, 155, 1)"></path><path d="M1512 560L0 560 L0 383.97Q61.92 325.89, 120 387.82Q179.83 375.65, 192 435.49Q212.75 384.24, 264 404.98Q283.38 352.37, 336 371.75Q361.99 325.74, 408 351.73Q465.29 337.02, 480 394.32Q559.02 353.34, 600 432.35Q654.38 366.73, 720 421.1Q724.62 353.72, 792 358.34Q855.9 350.24, 864 414.14Q907.76 385.9, 936 429.67Q977.78 399.45, 1008 441.23Q1028.47 341.7, 1128 362.17Q1169.7 331.87, 1200 373.57Q1279.67 333.24, 1320 412.91Q1374.85 347.76, 1440 402.61Q1452.94 343.56, 1512 356.5z" fill="rgba(51, 31, 148, 1)"></path><path d="M1512 560L0 560 L0 477.91Q27.01 432.93, 72 459.94Q149.08 417.02, 192 494.1Q235.25 465.36, 264 508.61Q269.35 441.96, 336 447.31Q386.4 377.71, 456 428.1Q539.65 391.75, 576 475.41Q632.43 459.85, 648 516.28Q669.83 466.11, 720 487.94Q785.35 433.28, 840 498.63Q878.12 416.75, 960 454.86Q989.9 412.76, 1032 442.67Q1083.33 374, 1152 425.32Q1202.77 404.09, 1224 454.86Q1286.58 445.44, 1296 508.02Q1325.18 465.2, 1368 494.38Q1379.44 433.82, 1440 445.27Q1469.58 402.85, 1512 432.42z" fill="rgba(243, 200, 46, 1)"></path><path d="M1536 560L0 560 L0 578.65Q4.52 511.17, 72 515.69Q139.79 463.48, 192 531.27Q212.73 480, 264 500.73Q345.34 462.07, 384 543.4Q432.12 519.52, 456 567.64Q474.32 513.96, 528 532.29Q546.11 478.39, 600 496.5Q672.76 449.26, 720 522.03Q809.64 491.67, 840 581.32Q865.55 534.88, 912 560.43Q948.34 476.76, 1032 513.1Q1074.84 483.94, 1104 526.78Q1173.13 475.91, 1224 545.05Q1266.76 515.81, 1296 558.57Q1338.84 481.41, 1416 524.25Q1503.89 492.14, 1536 580.04z" fill="white"></path></g><defs><mask id="SvgjsMask1006"><rect width="1440" height="560" fill="#ffffff"></rect></mask></defs></svg>